<?xml version="1.0" encoding="UTF-8"?>
<svg width="60" height="60" version="1.1" viewBox="0 0 15.875 15.875" xmlns="http://www.w3.org/2000/svg"
  xmlns:xlink="http://www.w3.org/1999/xlink" aria-hidden="true" role="img">
  <path
    d="m9.5976 2.3432e-5c-0.91642 0.016277-1.9982 0.0021549-2.8678 0.10805-2.5949 0.28515-5.5716 3.296-6.1008 6.1188-0.21344 1.1385-0.16541 2.3406 0 3.5444 0.3536 2.5735 2.7615 6.1038 6.1038 6.1038h2.5521c3.3814 0 6.1038-2.7223 6.1038-6.1038v-0.20611l-6.0662 0.027684c-0.050447 1.2859-0.20517 1.919-1.1112 1.933-0.98944 6.22e-4 -1.2543-1.5685-1.2543-3.6579 0-2.0895 0.47269-3.5615 1.379-3.6025 0.69533 0.027566 1.2183 0.4454 1.2908 2.022l5.7619-0.013842v-0.16427c0-3.2758-2.5759-6.078-5.791-6.1092z"
    stroke-linecap="round" stroke-linejoin="round" stroke-width="0" />

  <style>
    path {
      fill: #091540;
    }

    @media (prefers-color-scheme:dark) {
      path {
        fill: #EEF0F2
      }
    }
  </style>
</svg>